<?xml version="1.0" encoding="UTF-8"?>
<svg id="_레이어_2" data-name="레이어 2" xmlns="http://www.w3.org/2000/svg" viewBox="0 0 89.39 38.11">
  <defs>
    <style>
      .cls-1 {
        fill: #fff;
        stroke: #fff;
        stroke-miterlimit: 10;
      }
    </style>
  </defs>
  <g id="_레이어_1-2" data-name="레이어 1">
    <g>
      <path class="cls-1" d="M9.63,28.54c-.3,1.89-.07,3.58,1.11,5.07.68.86,1.31,1.77,2,2.7-.57.34-1.08.65-1.64.98-.1-.13-.2-.23-.28-.35-.56-.79-1.08-1.62-1.69-2.38-1.39-1.73-1.73-3.74-1.56-5.87.34-4.37,2.75-7.39,6.38-9.53,2.83-1.67,5.92-2.18,9.16-1.64,2.97.49,4.65,2.25,5.14,5.22.31,1.85.03,3.68-.23,5.51-.02.11-.19.22-.31.27-.11.05-.26.01-.39.01-5.69,0-11.38,0-17.06,0h-.62ZM10.04,26.57c.26,0,.45,0,.64,0,4.99,0,9.99,0,14.98,0,.12,0,.25.04.34-.01.12-.06.28-.18.3-.29.17-1.3.2-2.6-.16-3.87-.46-1.63-1.5-2.66-3.17-2.95-.69-.12-1.41-.15-2.11-.11-3.16.14-6.02,1.11-8.36,3.32-1.13,1.07-1.93,2.36-2.45,3.92Z"/>
      <path class="cls-1" d="M73.25,36.31c-.58.35-1.1.66-1.64.98-.11-.14-.21-.25-.29-.37-.51-.71-.96-1.46-1.52-2.13-1.77-2.13-2-4.59-1.59-7.19.43-2.71,1.79-4.89,3.83-6.68,3.34-2.94,7.23-4.06,11.6-3.38,3.08.48,4.85,2.51,5.19,5.68.18,1.69-.06,3.36-.3,5.02-.02.12-.21.24-.34.3-.11.05-.26.01-.39.01-5.7,0-11.41,0-17.11-.01-.48,0-.6.15-.64.6-.16,1.74.21,3.29,1.34,4.67.65.79,1.22,1.64,1.87,2.51ZM86.77,26.54c.18-1.12.23-2.22.06-3.31-.42-2.6-1.87-3.86-4.52-3.91-1.61-.04-3.19.17-4.73.67-2.62.86-4.8,2.32-6.21,4.75-.32.55-.56,1.16-.86,1.8h16.26Z"/>
      <path class="cls-1" d="M64.25,37.61h-1.93v-.55c0-2.19-.04-4.38,0-6.57.14-6.24-4.4-10.15-9.75-10.57-1.74-.14-3.49-.08-5.24-.11-.19,0-.38,0-.6,0V.5c.59,0,1.17,0,1.76.01.06,0,.15.15.17.24.03.12.01.26.01.39,0,5.36,0,10.71,0,16.07,0,.2,0,.39,0,.64.2,0,.38,0,.55,0,2.4-.07,4.78.02,7.08.81,4.85,1.66,7.78,5.58,7.95,10.8.09,2.63.02,5.27.02,7.91,0,.06-.02.13-.03.24Z"/>
      <path class="cls-1" d="M38,36.81h-1.92v-16.71h-3.68v-1.95h3.66V.53h1.94v36.27Z"/>
      <path class="cls-1" d="M.5.52h1.97v.63c0,10.33,0,20.66,0,30.99,0,1.51.27,2.91,1.07,4.2.03.05.05.12.1.26-.69,0-1.34.02-1.99-.02-.13,0-.28-.2-.37-.35-.57-.98-.76-2.07-.76-3.18,0-4.83,0-9.66,0-14.48,0-5.8,0-11.6,0-17.4v-.65Z"/>
    </g>
  </g>
</svg>